<svg width="30" height="30" viewBox="0 0 30 30" fill="none" xmlns="http://www.w3.org/2000/svg">
<path d="M23.7374 3.19071C22.7995 2.64909 21.7641 2.29752 20.6903 2.15608C19.6165 2.01463 18.5254 2.08609 17.4792 2.36636C16.4331 2.64663 15.4524 3.13023 14.5931 3.78954C13.7338 4.44885 13.0129 5.27097 12.4713 6.20893L12.1606 6.74679C12.0543 6.93137 12.0256 7.15062 12.0808 7.35635C12.1361 7.56208 12.2708 7.73746 12.4553 7.84393L18.3063 11.2221L14.8049 17.3507L14.7321 17.3496C11.3485 17.3496 8.41813 19.3125 6.67277 22.0875C6.97076 21.9817 7.28851 21.9434 7.60311 21.9753C7.91771 22.0071 8.22132 22.1084 8.49205 22.2718C10.0049 20.2725 12.2613 18.9568 14.7321 18.9568C17.3078 18.9568 19.651 20.3871 21.1606 22.5311C21.3693 22.3389 21.6141 22.1901 21.8808 22.0933C22.1475 21.9966 22.4308 21.9538 22.7142 21.9675C21.2881 19.7625 19.1067 18.0889 16.5471 17.5414L19.6981 12.0257L25.3478 15.2882C25.4392 15.341 25.5402 15.3753 25.6449 15.3891C25.7496 15.4029 25.856 15.3959 25.9579 15.3685C26.0599 15.3412 26.1555 15.294 26.2393 15.2296C26.323 15.1653 26.3933 15.0851 26.446 14.9936L26.7567 14.4568C27.2983 13.5188 27.6498 12.4834 27.7912 11.4095C27.9325 10.3357 27.861 9.24454 27.5806 8.19837C27.3002 7.15219 26.8165 6.17149 26.1571 5.31227C25.4977 4.45305 24.6755 3.73214 23.7374 3.19071ZM21.391 11.1471L18.0074 9.19286C18.6203 8.24893 19.2031 7.53 19.9017 6.89464C20.5821 6.27536 21.3942 5.71607 22.4956 5.1075C22.6585 6.13072 22.7078 6.9825 22.6028 7.81821C22.4785 8.81679 22.126 9.84643 21.3888 11.1461M22.7796 11.9496C23.5938 10.5161 24.0396 9.28179 24.1971 8.0175C24.301 7.18821 24.2774 6.36964 24.1735 5.505C25.2359 6.50988 25.937 7.83726 26.1682 9.28126C26.3993 10.7253 26.1474 12.2052 25.4517 13.4914L22.7796 11.9496ZM18.8196 5.70536C17.9731 6.47571 17.2928 7.33286 16.6124 8.38821L13.9553 6.85393C14.705 5.63513 15.8282 4.69098 17.1577 4.16202C18.4873 3.63305 19.9521 3.54754 21.3342 3.91821C20.3388 4.49143 19.5288 5.05929 18.8196 5.70536ZM8.14813 23.8532C8.0931 23.6879 7.98583 23.5449 7.84247 23.4458C7.69911 23.3468 7.52744 23.297 7.35333 23.304C7.17921 23.311 7.0121 23.3745 6.87717 23.4847C6.74224 23.595 6.64681 23.7461 6.60527 23.9154C6.33205 25.0318 5.81455 25.6446 5.22527 26.0004C4.60812 26.3732 3.8217 26.5168 2.9442 26.5168C2.73108 26.5168 2.52668 26.6014 2.37599 26.7521C2.22529 26.9028 2.14062 27.1072 2.14062 27.3204C2.14062 27.5335 2.22529 27.7379 2.37599 27.8886C2.52668 28.0393 2.73108 28.1239 2.9442 28.1239C3.96955 28.1239 5.08705 27.9611 6.05563 27.3761C6.63364 27.0274 7.12086 26.5468 7.47741 25.9736C9.3942 28.4186 13.1367 28.4057 14.9978 25.9479C16.8888 28.4443 20.7192 28.4186 22.6081 25.8557C23.1209 26.5537 23.7897 27.1222 24.5611 27.516C25.3325 27.9098 26.1852 28.118 27.0513 28.1239C27.2645 28.1239 27.4689 28.0393 27.6196 27.8886C27.7703 27.7379 27.8549 27.5335 27.8549 27.3204C27.8549 27.1072 27.7703 26.9028 27.6196 26.7521C27.4689 26.6014 27.2645 26.5168 27.0513 26.5168C25.471 26.5168 23.896 25.4882 23.3763 23.8618C23.3249 23.6999 23.2235 23.5585 23.0868 23.4579C22.95 23.3572 22.7848 23.3025 22.615 23.3015C22.4452 23.3006 22.2794 23.3535 22.1415 23.4526C22.0036 23.5517 21.9006 23.6919 21.8474 23.8532C20.8156 26.97 16.771 26.9304 15.7574 23.9829C15.7029 23.8248 15.6004 23.6876 15.4642 23.5906C15.3281 23.4935 15.165 23.4413 14.9978 23.4413C14.8305 23.4413 14.6675 23.4935 14.5313 23.5906C14.3952 23.6876 14.2927 23.8248 14.2381 23.9829C13.2246 26.9304 9.18098 26.9689 8.14813 23.8532Z" fill="black"/>
</svg>
