<svg width="30" height="30" viewBox="0 0 30 30" fill="none" xmlns="http://www.w3.org/2000/svg">
<path d="M7.49997 5C7.00268 5 6.52577 5.19754 6.17414 5.54917C5.82251 5.90081 5.62497 6.37772 5.62497 6.875V7.8125C5.62497 8.06114 5.52619 8.2996 5.35038 8.47541C5.17456 8.65123 4.93611 8.75 4.68747 8.75C4.43883 8.75 4.20037 8.65123 4.02455 8.47541C3.84874 8.2996 3.74997 8.06114 3.74997 7.8125V6.875C3.74997 5.88044 4.14505 4.92661 4.84832 4.22335C5.55158 3.52009 6.5054 3.125 7.49997 3.125C8.49453 3.125 9.44835 3.52009 10.1516 4.22335C10.8549 4.92661 11.25 5.88044 11.25 6.875V11.25H20.625V6.875C20.625 6.37772 20.4274 5.90081 20.0758 5.54917C19.7242 5.19754 19.2472 5 18.75 5C18.2527 5 17.7758 5.19754 17.4241 5.54917C17.0725 5.90081 16.875 6.37772 16.875 6.875V7.8125C16.875 8.06114 16.7762 8.2996 16.6004 8.47541C16.4246 8.65123 16.1861 8.75 15.9375 8.75C15.6888 8.75 15.4504 8.65123 15.2746 8.47541C15.0987 8.2996 15 8.06114 15 7.8125V6.875C15 5.88044 15.3951 4.92661 16.0983 4.22335C16.8016 3.52009 17.7554 3.125 18.75 3.125C19.7445 3.125 20.6984 3.52009 21.4016 4.22335C22.1049 4.92661 22.5 5.88044 22.5 6.875V17.9469C21.8815 18.0618 21.254 18.1214 20.625 18.125V13.125H11.25V15.3269C10.6327 15.1859 10.0061 15.0894 9.37497 15.0381V6.875C9.37497 6.37772 9.17742 5.90081 8.82579 5.54917C8.47416 5.19754 7.99725 5 7.49997 5ZM3.34059 19.0525C3.18196 18.861 3.10589 18.6144 3.1291 18.3669C3.1523 18.1193 3.27289 17.8911 3.46434 17.7325L3.46559 17.7313L3.46684 17.7306L3.46934 17.7287L3.47559 17.7238L3.49122 17.7106C3.56043 17.6557 3.63196 17.6038 3.70559 17.555C3.8963 17.4266 4.09412 17.3092 4.29809 17.2031C4.99433 16.8443 5.73801 16.586 6.50684 16.4363C8.43809 16.0487 11.1768 16.1487 14.5837 17.8825C17.6837 19.4594 20.4237 19.5375 22.3806 19.235C23.1689 19.115 23.9421 18.9107 24.6868 18.6256C24.9543 18.5219 25.1587 18.4288 25.2912 18.3644C25.3581 18.3319 25.4062 18.3069 25.4362 18.2906L25.4668 18.2744L25.4681 18.2731H25.4693L25.4706 18.2725C25.6854 18.1561 25.9372 18.1283 26.1723 18.1948C26.4074 18.2613 26.6072 18.4169 26.7292 18.6286C26.8513 18.8402 26.8859 19.0911 26.8256 19.3279C26.7654 19.5647 26.6152 19.7686 26.4068 19.8962L26.4056 19.8969L26.4025 19.8988L26.3962 19.9025L26.3781 19.9125C26.2913 19.9613 26.2029 20.0071 26.1131 20.05C25.9368 20.1356 25.685 20.25 25.3643 20.3744C24.4935 20.7081 23.5894 20.9472 22.6675 21.0875C20.3862 21.4413 17.2368 21.3363 13.7337 19.5537C10.6887 18.0044 8.37934 17.9725 6.87559 18.2744C6.11559 18.4269 5.54184 18.6681 5.16747 18.8644C4.99458 18.9546 4.82814 19.0568 4.66934 19.17L4.65497 19.1806C4.46329 19.337 4.21759 19.4113 3.97139 19.3873C3.72519 19.3633 3.49846 19.2429 3.34059 19.0525ZM3.34059 24.6775C3.18196 24.486 3.10589 24.2394 3.1291 23.9919C3.1523 23.7443 3.27289 23.5161 3.46434 23.3575L3.46559 23.3562L3.46684 23.3556L3.46934 23.3531L3.47559 23.3488L3.49122 23.3356C3.56043 23.2807 3.63196 23.2288 3.70559 23.18C3.8963 23.0516 4.09412 22.9342 4.29809 22.8281C4.99433 22.4693 5.73801 22.2111 6.50684 22.0613C8.43809 21.6737 11.1768 21.7738 14.5837 23.5075C17.6837 25.0844 20.4237 25.1625 22.3806 24.86C23.1689 24.74 23.9421 24.5357 24.6868 24.2506C24.9543 24.1469 25.1587 24.0537 25.2912 23.9894C25.3581 23.9569 25.4062 23.9312 25.4362 23.9156L25.4668 23.8994L25.4681 23.8981H25.4693L25.4706 23.8975C25.6854 23.7811 25.9372 23.7533 26.1723 23.8198C26.4074 23.8863 26.6072 24.0419 26.7292 24.2536C26.8513 24.4652 26.8859 24.7161 26.8256 24.9529C26.7654 25.1897 26.6152 25.3936 26.4068 25.5212L26.4056 25.5219L26.405 25.5225L26.4025 25.5238L26.3962 25.5275L26.3781 25.5375C26.2913 25.5863 26.2029 25.6321 26.1131 25.675C25.9368 25.7606 25.685 25.875 25.3643 25.9994C24.4935 26.3331 23.5894 26.5722 22.6675 26.7125C20.3862 27.0663 17.2368 26.9613 13.7337 25.1787C10.6887 23.6294 8.37934 23.5975 6.87559 23.8994C6.11559 24.0519 5.54184 24.2931 5.16747 24.4894C4.99458 24.5796 4.82814 24.6818 4.66934 24.795L4.65497 24.8056C4.46329 24.962 4.21759 25.0363 3.97139 25.0123C3.72519 24.9883 3.49846 24.8679 3.34059 24.6775Z" fill="black"/>
</svg>
