<svg width="30" height="30" viewBox="0 0 30 30" fill="none" xmlns="http://www.w3.org/2000/svg">
<path d="M28.125 17.8126H23.3848C23.4194 17.5013 23.437 17.1883 23.4375 16.8751C23.4375 14.6373 22.5486 12.4912 20.9662 10.9089C19.3839 9.32656 17.2378 8.43761 15 8.43761C12.7622 8.43761 10.6161 9.32656 9.03379 10.9089C7.45145 12.4912 6.5625 14.6373 6.5625 16.8751C6.56303 17.1883 6.58063 17.5013 6.61523 17.8126H1.875C1.62636 17.8126 1.3879 17.9114 1.21209 18.0872C1.03627 18.263 0.9375 18.5015 0.9375 18.7501C0.9375 18.9988 1.03627 19.2372 1.21209 19.413C1.3879 19.5888 1.62636 19.6876 1.875 19.6876H28.125C28.3736 19.6876 28.6121 19.5888 28.7879 19.413C28.9637 19.2372 29.0625 18.9988 29.0625 18.7501C29.0625 18.5015 28.9637 18.263 28.7879 18.0872C28.6121 17.9114 28.3736 17.8126 28.125 17.8126ZM8.4375 16.8751C8.43578 15.9727 8.62021 15.0796 8.97926 14.2516C9.33832 13.4236 9.86428 12.6787 10.5243 12.0632C11.1843 11.4477 11.9641 10.9749 12.8151 10.6745C13.6661 10.374 14.5699 10.2523 15.47 10.3169C16.3701 10.3816 17.2473 10.6312 18.0466 11.0501C18.8459 11.4691 19.5502 12.0484 20.1155 12.7519C20.6808 13.4554 21.0949 14.2679 21.332 15.1386C21.5691 16.0094 21.624 16.9197 21.4934 17.8126H8.50664C8.46126 17.5022 8.43816 17.1889 8.4375 16.8751ZM25.3125 23.4376C25.3125 23.6863 25.2137 23.9247 25.0379 24.1005C24.8621 24.2763 24.6236 24.3751 24.375 24.3751H5.625C5.37636 24.3751 5.1379 24.2763 4.96209 24.1005C4.78627 23.9247 4.6875 23.6863 4.6875 23.4376C4.6875 23.189 4.78627 22.9505 4.96209 22.7747C5.1379 22.5989 5.37636 22.5001 5.625 22.5001H24.375C24.6236 22.5001 24.8621 22.5989 25.0379 22.7747C25.2137 22.9505 25.3125 23.189 25.3125 23.4376ZM8.53594 5.10714C8.42467 4.88461 8.40636 4.62699 8.48504 4.39096C8.56372 4.15493 8.73294 3.95982 8.95547 3.84855C9.178 3.73728 9.43562 3.71898 9.67165 3.79765C9.90769 3.87633 10.1028 4.04555 10.2141 4.26808L11.1516 6.14308C11.2067 6.25327 11.2395 6.37323 11.2482 6.49611C11.257 6.619 11.2414 6.74239 11.2025 6.85927C11.1635 6.97614 11.1019 7.08419 11.0212 7.17726C10.9405 7.27032 10.8422 7.34658 10.732 7.40168C10.6218 7.45677 10.5019 7.48962 10.379 7.49835C10.2561 7.50709 10.1327 7.49153 10.0158 7.45257C9.89898 7.41362 9.79092 7.35202 9.69785 7.2713C9.60479 7.19059 9.52853 7.09233 9.47344 6.98214L8.53594 5.10714ZM1.97344 10.8306C2.02857 10.7204 2.10487 10.6222 2.19798 10.5416C2.29108 10.461 2.39916 10.3995 2.51605 10.3606C2.63293 10.3218 2.75632 10.3063 2.87917 10.3152C3.00203 10.324 3.12193 10.357 3.23203 10.4122L5.10703 11.3497C5.32941 11.461 5.49848 11.656 5.57705 11.892C5.65561 12.1279 5.63724 12.3854 5.52598 12.6077C5.41471 12.8301 5.21966 12.9992 4.98374 13.0777C4.74782 13.1563 4.49035 13.1379 4.26797 13.0267L2.39297 12.0892C2.28273 12.0341 2.18441 11.9579 2.10365 11.8649C2.02289 11.7718 1.96127 11.6637 1.9223 11.5468C1.88334 11.43 1.8678 11.3065 1.87657 11.1836C1.88535 11.0607 1.91826 10.9408 1.97344 10.8306ZM24.4734 12.6071C24.3624 12.3848 24.3442 12.1274 24.4229 11.8916C24.5015 11.6558 24.6706 11.4609 24.893 11.3497L26.768 10.4122C26.9903 10.301 27.2478 10.2826 27.4837 10.3612C27.7197 10.4397 27.9147 10.6088 28.026 10.8312C28.1372 11.0535 28.1556 11.311 28.077 11.5469C27.9985 11.7829 27.8294 11.9779 27.607 12.0892L25.732 13.0267C25.6219 13.0819 25.5019 13.1148 25.379 13.1235C25.2561 13.1323 25.1327 13.1168 25.0158 13.0778C24.8989 13.0388 24.7908 12.9772 24.6978 12.8965C24.6047 12.8157 24.5285 12.7174 24.4734 12.6071ZM18.8484 6.14308L19.7859 4.26808C19.8972 4.04555 20.0923 3.87633 20.3283 3.79765C20.5644 3.71898 20.822 3.73728 21.0445 3.84855C21.2671 3.95982 21.4363 4.15493 21.515 4.39096C21.5936 4.62699 21.5753 4.88461 21.4641 5.10714L20.5266 6.98214C20.4153 7.20468 20.2202 7.3739 19.9842 7.45257C19.7481 7.53125 19.4905 7.51294 19.268 7.40168C19.0454 7.29041 18.8762 7.0953 18.7975 6.85927C18.7189 6.62323 18.7372 6.36561 18.8484 6.14308Z" fill="black"/>
</svg>
